<svg width="16" height="16" viewBox="0 0 16 16" fill="none" xmlns="http://www.w3.org/2000/svg">
<g id="icon/sort-outline">
<path id="Union" fill-rule="evenodd" clip-rule="evenodd" d="M10.1739 3.65217V10.7733L9.11333 9.71273C8.85865 9.45804 8.44571 9.45804 8.19103 9.71273C7.93634 9.96741 7.93634 10.3803 8.19103 10.635L10.3649 12.8089C10.6196 13.0636 11.0325 13.0636 11.2872 12.8089L13.4611 10.635C13.7158 10.3803 13.7158 9.96741 13.4611 9.71273C13.2065 9.45804 12.7935 9.45804 12.5388 9.71273L11.4783 10.7733V3.65217C11.4783 3.29199 11.1863 3 10.8261 3C10.4659 3 10.1739 3.29199 10.1739 3.65217ZM5.63488 3.19103C5.3802 2.93634 4.96726 2.93634 4.71258 3.19103L2.53867 5.36493C2.28398 5.61962 2.28398 6.03256 2.53867 6.28724C2.79336 6.54193 3.20629 6.54193 3.46098 6.28724L4.52156 5.22667V12.3478C4.52156 12.708 4.81355 13 5.17373 13C5.53391 13 5.8259 12.708 5.8259 12.3478V5.22667L6.88648 6.28724C7.14117 6.54193 7.5541 6.54193 7.80879 6.28724C8.06348 6.03256 8.06348 5.61962 7.80879 5.36493L5.63488 3.19103Z" fill="#6A7383"/>
</g>
</svg>
