<svg width="20" height="20" viewBox="0 0 20 20" fill="none" xmlns="http://www.w3.org/2000/svg">
<g id="eye-off">
<g id="Vector">
<path fill-rule="evenodd" clip-rule="evenodd" d="M9.99987 7.64173C8.69505 7.64173 7.64154 8.69524 7.64154 10.0001C7.64154 10.4254 7.75314 10.8221 7.95011 11.1659L11.1657 7.95031C10.8219 7.75334 10.4252 7.64173 9.99987 7.64173ZM6.39154 10.0001C6.39154 8.00489 8.00469 6.39173 9.99987 6.39173C10.998 6.39173 11.8966 6.79626 12.5501 7.44979C12.7942 7.69387 12.7942 8.0896 12.5501 8.33367L8.33348 12.5503C8.0894 12.7944 7.69367 12.7944 7.44959 12.5503C6.79607 11.8968 6.39154 10.9982 6.39154 10.0001Z" fill="#383E47"/>
<path fill-rule="evenodd" clip-rule="evenodd" d="M1.88112 7.50587C3.87355 4.3739 6.79322 2.4834 9.99987 2.4834C11.8746 2.4834 13.6711 3.13641 15.2262 4.30943C15.5018 4.51729 15.5567 4.90919 15.3488 5.18477C15.141 5.46034 14.7491 5.51523 14.4735 5.30737C13.112 4.28039 11.5752 3.7334 9.99987 3.7334C7.32333 3.7334 4.75978 5.3094 2.93555 8.17718L2.93503 8.178C2.63954 8.64093 2.4707 9.3036 2.4707 10.0042C2.4707 10.7049 2.63954 11.3675 2.93503 11.8305C3.56317 12.8164 4.29079 13.6609 5.07406 14.3345C5.33577 14.5596 5.36547 14.9542 5.1404 15.2159C4.91533 15.4776 4.52072 15.5073 4.25901 15.2823C3.37561 14.5225 2.56961 13.5833 1.88109 12.5026C1.42678 11.7906 1.2207 10.8784 1.2207 10.0042C1.2207 9.13003 1.42679 8.21788 1.88112 7.50587Z" fill="#383E47"/>
<path fill-rule="evenodd" clip-rule="evenodd" d="M16.3165 6.12139C16.5854 5.90505 16.9789 5.94771 17.1952 6.21667C17.5151 6.6144 17.8294 7.04178 18.1192 7.49851C18.5731 8.21038 18.779 9.12209 18.779 9.9959C18.779 10.8701 18.573 11.7823 18.1186 12.4943C16.1262 15.6262 13.2065 17.5167 9.99987 17.5167C8.88609 17.5167 7.79556 17.2812 6.774 16.8511C6.45587 16.7171 6.30657 16.3507 6.44051 16.0325C6.57446 15.7144 6.94094 15.5651 7.25907 15.699C8.13752 16.0689 9.06365 16.2667 9.99987 16.2667C12.6764 16.2667 15.24 14.6907 17.0642 11.8229L17.0647 11.8221C17.3602 11.3592 17.529 10.6965 17.529 9.9959C17.529 9.29527 17.3602 8.6326 17.0647 8.16967L17.0638 8.16829C16.8037 7.75836 16.518 7.36907 16.2212 7.00012C16.0049 6.73116 16.0475 6.33773 16.3165 6.12139Z" fill="#383E47"/>
<path fill-rule="evenodd" clip-rule="evenodd" d="M13.0382 9.96876C13.3777 10.0314 13.6021 10.3573 13.5395 10.6967C13.2758 12.1266 12.1181 13.2844 10.6882 13.548C10.3488 13.6106 10.0228 13.3862 9.96023 13.0467C9.89764 12.7073 10.1221 12.3814 10.4615 12.3188C11.3817 12.1491 12.1406 11.3902 12.3102 10.4701C12.3728 10.1306 12.6988 9.90617 13.0382 9.96876Z" fill="#383E47"/>
<path fill-rule="evenodd" clip-rule="evenodd" d="M7.94181 12.0581C8.18589 12.3022 8.18589 12.6979 7.94181 12.942L3.77515 17.1087C3.53107 17.3528 3.13534 17.3528 2.89126 17.1087C2.64718 16.8646 2.64718 16.4689 2.89126 16.2248L7.05793 12.0581C7.30201 11.814 7.69773 11.814 7.94181 12.0581Z" fill="#383E47"/>
<path fill-rule="evenodd" clip-rule="evenodd" d="M17.1085 2.89146C17.3526 3.13553 17.3526 3.53126 17.1085 3.77534L12.9418 7.94201C12.6977 8.18608 12.302 8.18608 12.0579 7.94201C11.8139 7.69793 11.8139 7.3022 12.0579 7.05812L16.2246 2.89146C16.4687 2.64738 16.8644 2.64738 17.1085 2.89146Z" fill="#383E47"/>
</g>
</g>
</svg>
