<svg width="48" height="48" viewBox="0 0 48 48" fill="none" xmlns="http://www.w3.org/2000/svg">
<g id="48*48/Buildings">
<path id="Vector" d="M45 39H42V18C42 17.2043 41.6839 16.4413 41.1213 15.8787C40.5587 15.3161 39.7957 15 39 15H27V6C27.0004 5.45674 26.8532 4.92358 26.5742 4.45743C26.2952 3.99128 25.8949 3.60964 25.416 3.35323C24.937 3.09682 24.3974 2.97527 23.8548 3.00156C23.3122 3.02785 22.7869 3.20099 22.335 3.5025L7.335 13.5C6.92351 13.7745 6.58629 14.1466 6.35337 14.583C6.12046 15.0194 5.99906 15.5066 6 16.0012V39H3C2.60218 39 2.22064 39.158 1.93934 39.4393C1.65804 39.7206 1.5 40.1022 1.5 40.5C1.5 40.8978 1.65804 41.2794 1.93934 41.5607C2.22064 41.842 2.60218 42 3 42H45C45.3978 42 45.7794 41.842 46.0607 41.5607C46.342 41.2794 46.5 40.8978 46.5 40.5C46.5 40.1022 46.342 39.7206 46.0607 39.4393C45.7794 39.158 45.3978 39 45 39ZM39 18V39H27V18H39ZM9 16.0012L24 6V39H9V16.0012ZM21 21V24C21 24.3978 20.842 24.7794 20.5607 25.0607C20.2794 25.342 19.8978 25.5 19.5 25.5C19.1022 25.5 18.7206 25.342 18.4393 25.0607C18.158 24.7794 18 24.3978 18 24V21C18 20.6022 18.158 20.2206 18.4393 19.9393C18.7206 19.658 19.1022 19.5 19.5 19.5C19.8978 19.5 20.2794 19.658 20.5607 19.9393C20.842 20.2206 21 20.6022 21 21ZM15 21V24C15 24.3978 14.842 24.7794 14.5607 25.0607C14.2794 25.342 13.8978 25.5 13.5 25.5C13.1022 25.5 12.7206 25.342 12.4393 25.0607C12.158 24.7794 12 24.3978 12 24V21C12 20.6022 12.158 20.2206 12.4393 19.9393C12.7206 19.658 13.1022 19.5 13.5 19.5C13.8978 19.5 14.2794 19.658 14.5607 19.9393C14.842 20.2206 15 20.6022 15 21ZM15 31.5V34.5C15 34.8978 14.842 35.2794 14.5607 35.5607C14.2794 35.842 13.8978 36 13.5 36C13.1022 36 12.7206 35.842 12.4393 35.5607C12.158 35.2794 12 34.8978 12 34.5V31.5C12 31.1022 12.158 30.7206 12.4393 30.4393C12.7206 30.158 13.1022 30 13.5 30C13.8978 30 14.2794 30.158 14.5607 30.4393C14.842 30.7206 15 31.1022 15 31.5ZM21 31.5V34.5C21 34.8978 20.842 35.2794 20.5607 35.5607C20.2794 35.842 19.8978 36 19.5 36C19.1022 36 18.7206 35.842 18.4393 35.5607C18.158 35.2794 18 34.8978 18 34.5V31.5C18 31.1022 18.158 30.7206 18.4393 30.4393C18.7206 30.158 19.1022 30 19.5 30C19.8978 30 20.2794 30.158 20.5607 30.4393C20.842 30.7206 21 31.1022 21 31.5Z" fill="black"/>
</g>
</svg>
