<svg width="64" height="64" viewBox="0 0 64 64" fill="none" xmlns="http://www.w3.org/2000/svg">
<circle cx="32" cy="32" r="30.5" stroke="#E03137" stroke-width="3"/>
<path d="M23.959 46.875C23.0194 46.875 22.2153 46.5407 21.5468 45.8722C20.8783 45.2037 20.5435 44.3991 20.5423 43.4583V21.25H18.834V17.8333H27.3757V16.125H37.6257V17.8333H46.1673V21.25H44.459V43.4583C44.459 44.3979 44.1247 45.2025 43.4562 45.8722C42.7877 46.5419 41.983 46.8761 41.0423 46.875H23.959ZM41.0423 21.25H23.959V43.4583H41.0423V21.25ZM27.3757 40.0417H30.7923V24.6667H27.3757V40.0417ZM34.209 40.0417H37.6257V24.6667H34.209V40.0417Z" fill="#E03137"/>
</svg>
