<svg width="20" height="20" viewBox="0 0 20 20" fill="none" xmlns="http://www.w3.org/2000/svg">
<g id="icon/UsersFour">
<path id="Vector" d="M2.125 9.8754C2.19066 9.92465 2.26538 9.96048 2.34489 9.98085C2.4244 10.0012 2.50714 10.0057 2.58839 9.99412C2.66964 9.98251 2.74781 9.95501 2.81843 9.9132C2.88906 9.87138 2.95075 9.81606 3 9.7504C3.37841 9.24585 3.86909 8.83634 4.43319 8.55429C4.99729 8.27224 5.61932 8.1254 6.25 8.1254C6.88068 8.1254 7.5027 8.27224 8.0668 8.55429C8.63091 8.83634 9.12159 9.24585 9.5 9.7504C9.59957 9.88289 9.74769 9.9704 9.91178 9.9937C10.0759 10.017 10.2425 9.97416 10.375 9.87462C10.4222 9.83949 10.4641 9.79764 10.4992 9.7504C10.8776 9.24585 11.3683 8.83634 11.9324 8.55429C12.4965 8.27224 13.1185 8.1254 13.7492 8.1254C14.3799 8.1254 15.0019 8.27224 15.566 8.55429C16.1301 8.83634 16.6208 9.24585 16.9992 9.7504C17.0988 9.88301 17.2469 9.97064 17.4111 9.994C17.5753 10.0174 17.742 9.97457 17.8746 9.87501C18.0072 9.77545 18.0948 9.62729 18.1182 9.46312C18.1416 9.29895 18.0988 9.13223 17.9992 8.99962C17.446 8.25795 16.7083 7.67402 15.8594 7.30587C16.3248 6.88098 16.6508 6.32532 16.7947 5.71181C16.9387 5.09829 16.8938 4.4556 16.6659 3.86807C16.438 3.28054 16.0379 2.77563 15.5179 2.4196C14.998 2.06357 14.3825 1.87305 13.7523 1.87305C13.1222 1.87305 12.5067 2.06357 11.9868 2.4196C11.4668 2.77563 11.0667 3.28054 10.8388 3.86807C10.6109 4.4556 10.566 5.09829 10.7099 5.71181C10.8539 6.32532 11.1799 6.88098 11.6453 7.30587C11.0324 7.57091 10.4756 7.95033 10.0047 8.42384C9.53381 7.95033 8.977 7.57091 8.36406 7.30587C8.82944 6.88098 9.1555 6.32532 9.29943 5.71181C9.44336 5.09829 9.39845 4.4556 9.17058 3.86807C8.94272 3.28054 8.54255 2.77563 8.0226 2.4196C7.50265 2.06357 6.8872 1.87305 6.25703 1.87305C5.62686 1.87305 5.01142 2.06357 4.49146 2.4196C3.97151 2.77563 3.57134 3.28054 3.34348 3.86807C3.11562 4.4556 3.0707 5.09829 3.21464 5.71181C3.35857 6.32532 3.68462 6.88098 4.15 7.30587C3.29738 7.67282 2.55602 8.25713 2 9.0004C1.95075 9.06606 1.91492 9.14078 1.89455 9.22029C1.87418 9.2998 1.86967 9.38254 1.88128 9.46379C1.89289 9.54504 1.92039 9.62321 1.9622 9.69383C2.00402 9.76446 2.05934 9.82616 2.125 9.8754ZM13.75 3.1254C14.1208 3.1254 14.4834 3.23537 14.7917 3.4414C15.1 3.64742 15.3404 3.94026 15.4823 4.28287C15.6242 4.62548 15.6613 5.00248 15.589 5.36619C15.5166 5.72991 15.338 6.064 15.0758 6.32623C14.8136 6.58845 14.4795 6.76703 14.1158 6.83937C13.7521 6.91172 13.3751 6.87459 13.0325 6.73268C12.6899 6.59076 12.397 6.35044 12.191 6.0421C11.985 5.73375 11.875 5.37124 11.875 5.0004C11.875 4.50312 12.0725 4.02621 12.4242 3.67458C12.7758 3.32294 13.2527 3.1254 13.75 3.1254ZM6.25 3.1254C6.62084 3.1254 6.98335 3.23537 7.29169 3.4414C7.60004 3.64742 7.84036 3.94026 7.98227 4.28287C8.12419 4.62548 8.16132 5.00248 8.08897 5.36619C8.01663 5.72991 7.83805 6.064 7.57583 6.32623C7.3136 6.58845 6.97951 6.76703 6.61579 6.83937C6.25208 6.91172 5.87508 6.87459 5.53247 6.73268C5.18986 6.59076 4.89702 6.35044 4.69099 6.0421C4.48497 5.73375 4.375 5.37124 4.375 5.0004C4.375 4.50312 4.57254 4.02621 4.92417 3.67458C5.27581 3.32294 5.75272 3.1254 6.25 3.1254ZM15.8594 15.4309C16.3248 15.006 16.6508 14.4503 16.7947 13.8368C16.9387 13.2233 16.8938 12.5806 16.6659 11.9931C16.438 11.4055 16.0379 10.9006 15.5179 10.5446C14.998 10.1886 14.3825 9.99805 13.7523 9.99805C13.1222 9.99805 12.5067 10.1886 11.9868 10.5446C11.4668 10.9006 11.0667 11.4055 10.8388 11.9931C10.6109 12.5806 10.566 13.2233 10.7099 13.8368C10.8539 14.4503 11.1799 15.006 11.6453 15.4309C11.0324 15.6959 10.4756 16.0753 10.0047 16.5488C9.53381 16.0753 8.977 15.6959 8.36406 15.4309C8.82944 15.006 9.1555 14.4503 9.29943 13.8368C9.44336 13.2233 9.39845 12.5806 9.17058 11.9931C8.94272 11.4055 8.54255 10.9006 8.0226 10.5446C7.50265 10.1886 6.8872 9.99805 6.25703 9.99805C5.62686 9.99805 5.01142 10.1886 4.49146 10.5446C3.97151 10.9006 3.57134 11.4055 3.34348 11.9931C3.11562 12.5806 3.0707 13.2233 3.21464 13.8368C3.35857 14.4503 3.68462 15.006 4.15 15.4309C3.29738 15.7978 2.55602 16.3821 2 17.1254C1.95075 17.1911 1.91492 17.2658 1.89455 17.3453C1.87418 17.4248 1.86967 17.5075 1.88128 17.5888C1.89289 17.67 1.92039 17.7482 1.9622 17.8188C2.00402 17.8895 2.05934 17.9512 2.125 18.0004C2.19066 18.0496 2.26538 18.0855 2.34489 18.1058C2.4244 18.1262 2.50714 18.1307 2.58839 18.1191C2.66964 18.1075 2.74781 18.08 2.81843 18.0382C2.88906 17.9964 2.95075 17.9411 3 17.8754C3.37841 17.3709 3.86909 16.9613 4.43319 16.6793C4.99729 16.3972 5.61932 16.2504 6.25 16.2504C6.88068 16.2504 7.5027 16.3972 8.0668 16.6793C8.63091 16.9613 9.12159 17.3709 9.5 17.8754C9.59957 18.0079 9.74769 18.0954 9.91178 18.1187C10.0759 18.142 10.2425 18.0992 10.375 17.9996C10.4222 17.9645 10.4641 17.9226 10.4992 17.8754C10.8776 17.3709 11.3683 16.9613 11.9324 16.6793C12.4965 16.3972 13.1185 16.2504 13.7492 16.2504C14.3799 16.2504 15.0019 16.3972 15.566 16.6793C16.1301 16.9613 16.6208 17.3709 16.9992 17.8754C17.0988 18.008 17.2469 18.0956 17.4111 18.119C17.5753 18.1424 17.742 18.0996 17.8746 18C18.0072 17.9004 18.0948 17.7523 18.1182 17.5881C18.1416 17.424 18.0988 17.2572 17.9992 17.1246C17.446 16.383 16.7083 15.799 15.8594 15.4309ZM6.25 11.2504C6.62084 11.2504 6.98335 11.3604 7.29169 11.5664C7.60004 11.7724 7.84036 12.0653 7.98227 12.4079C8.12419 12.7505 8.16132 13.1275 8.08897 13.4912C8.01663 13.8549 7.83805 14.189 7.57583 14.4512C7.3136 14.7134 6.97951 14.892 6.61579 14.9644C6.25208 15.0367 5.87508 14.9996 5.53247 14.8577C5.18986 14.7158 4.89702 14.4754 4.69099 14.1671C4.48497 13.8588 4.375 13.4962 4.375 13.1254C4.375 12.6281 4.57254 12.1512 4.92417 11.7996C5.27581 11.4479 5.75272 11.2504 6.25 11.2504ZM13.75 11.2504C14.1208 11.2504 14.4834 11.3604 14.7917 11.5664C15.1 11.7724 15.3404 12.0653 15.4823 12.4079C15.6242 12.7505 15.6613 13.1275 15.589 13.4912C15.5166 13.8549 15.338 14.189 15.0758 14.4512C14.8136 14.7134 14.4795 14.892 14.1158 14.9644C13.7521 15.0367 13.3751 14.9996 13.0325 14.8577C12.6899 14.7158 12.397 14.4754 12.191 14.1671C11.985 13.8588 11.875 13.4962 11.875 13.1254C11.875 12.6281 12.0725 12.1512 12.4242 11.7996C12.7758 11.4479 13.2527 11.2504 13.75 11.2504Z" fill="black"/>
</g>
</svg>
