<svg width="20" height="20" viewBox="0 0 20 20" fill="none" xmlns="http://www.w3.org/2000/svg">
<g id="vuesax/outline/frame">
<g id="frame">
<path id="Vector" d="M9.86556 8.93335L9.92393 8.9354L9.96147 8.92789C9.9685 8.92763 9.97852 8.92741 9.99147 8.92741C10.0263 8.92741 10.0698 8.92898 10.1115 8.93219L10.1421 8.93454L10.1727 8.93313C12.0746 8.8458 13.5651 7.28319 13.5748 5.36952H13.5748V5.36699C13.5748 3.39918 11.9676 1.79199 9.9998 1.79199C8.032 1.79199 6.42481 3.39918 6.42481 5.36699C6.42481 7.30322 7.93835 8.86556 9.86556 8.93335ZM10.1331 9.18366H10.133H10.1328H10.1327H10.1326H10.1324H10.1323H10.1321H10.132H10.1318H10.1317H10.1315H10.1314H10.1312H10.1311H10.131H10.1308H10.1307H10.1305H10.1304H10.1302H10.1301H10.13H10.1298H10.1297H10.1295H10.1294H10.1293H10.1291H10.129H10.1288H10.1287H10.1285H10.1284H10.1283H10.1281H10.128H10.1278H10.1277H10.1276H10.1274H10.1273H10.1271H10.127H10.1269H10.1267H10.1266H10.1265H10.1263H10.1262H10.126H10.1259H10.1258H10.1256H10.1255H10.1253H10.1252H10.1251H10.1249H10.1248H10.1247H10.1245H10.1244H10.1243H10.1241H10.124H10.1238H10.1237H10.1236H10.1234H10.1233H10.1232H10.123H10.1229H10.1228H10.1226H10.1225H10.1224H10.1222H10.1221H10.122H10.1218H10.1217H10.1216H10.1214H10.1213H10.1212H10.121H10.1209H10.1208H10.1206H10.1205H10.1204H10.1202H10.1201H10.12H10.1198H10.1197H10.1196H10.1195H10.1193H10.1192H10.1191H10.1189H10.1188H10.1187H10.1185H10.1184H10.1183H10.1181H10.118H10.1179H10.1178H10.1176H10.1175H10.1174H10.1172H10.1171H10.117H10.1168H10.1167H10.1166H10.1165H10.1163H10.1162H10.1161H10.1159H10.1158H10.1157H10.1156H10.1154H10.1153H10.1152H10.1151H10.1149H10.1148H10.1147H10.1145H10.1144H10.1143H10.1142H10.114H10.1139H10.1138H10.1137H10.1135H10.1134H10.1133H10.1131H10.113H10.1129H10.1128H10.1126H10.1125H10.1124H10.1123H10.1121H10.112H10.1119H10.1118H10.1116H10.1115H10.1114H10.1113H10.1111H10.111H10.1109H10.1108H10.1106H10.1105H10.1104H10.1103H10.1101H10.11H10.1099H10.1098H10.1096H10.1095H10.1094H10.1093H10.1091H10.109H10.1089H10.1088H10.1086H10.1085H10.1084H10.1083H10.1081H10.108H10.1079H10.1078H10.1076H10.1075H10.1074H10.1073H10.1072H10.107H10.1069H10.1068H10.1067H10.1065H10.1064H10.1063H10.1062H10.106H10.1059H10.1058H10.1057H10.1056H10.1054H10.1053H10.1052H10.1051H10.1049H10.1048H10.1047H10.1046H10.1045H10.1043H10.1042H10.1041H10.104H10.1038H10.1037H10.1036H10.1035H10.1033H10.1032H10.1031C10.0321 9.17522 9.95978 9.1758 9.89363 9.18254C7.76313 9.09714 6.1748 7.42318 6.1748 5.36699C6.1748 3.2598 7.89261 1.54199 9.9998 1.54199C12.1067 1.54199 13.8243 3.25928 13.8248 5.36603C13.817 7.43865 12.1987 9.11344 10.1498 9.18366H10.1498H10.1498H10.1497H10.1497H10.1496H10.1496H10.1495H10.1495H10.1494H10.1494H10.1493H10.1493H10.1493H10.1492H10.1492H10.1491H10.1491H10.149H10.149H10.1489H10.1489H10.1488H10.1488H10.1487H10.1487H10.1486H10.1486H10.1485H10.1485H10.1484H10.1484H10.1483H10.1483H10.1482H10.1482H10.1481H10.1481H10.148H10.148H10.1479H10.1479H10.1478H10.1478H10.1477H10.1477H10.1476H10.1476H10.1475H10.1475H10.1474H10.1474H10.1473H10.1473H10.1472H10.1472H10.1472H10.1471H10.1471H10.147H10.147H10.1469H10.1469H10.1468H10.1468H10.1467H10.1467H10.1466H10.1466H10.1465H10.1465H10.1464H10.1464H10.1463H10.1463H10.1462H10.1462H10.1461H10.1461H10.146H10.146H10.1459H10.1459H10.1458H10.1458H10.1457H10.1457H10.1456H10.1456H10.1455H10.1455H10.1454H10.1454H10.1453H10.1453H10.1452H10.1452H10.1451H10.1451H10.1451H10.145H10.145H10.1449H10.1449H10.1448H10.1448H10.1447H10.1447H10.1446H10.1446H10.1445H10.1445H10.1444H10.1444H10.1443H10.1443H10.1442H10.1442H10.1441H10.1441H10.144H10.144H10.1439H10.1439H10.1438H10.1438H10.1437H10.1437H10.1436H10.1436H10.1435H10.1435H10.1434H10.1434H10.1433H10.1433H10.1432H10.1432H10.1431H10.1431H10.1431H10.143H10.143H10.1429H10.1429H10.1428H10.1428H10.1427H10.1427H10.1426H10.1426H10.1425H10.1425H10.1424H10.1424H10.1423H10.1423H10.1422H10.1422H10.1421H10.1421H10.142H10.142H10.1419H10.1419H10.1418H10.1418H10.1417H10.1417H10.1416H10.1416H10.1415H10.1415H10.1414H10.1414H10.1413H10.1413H10.1412H10.1412H10.1411H10.1411H10.141H10.141H10.141H10.1409H10.1409H10.1408H10.1408H10.1407H10.1407H10.1406H10.1406H10.1405H10.1405H10.1404H10.1404H10.1403H10.1403H10.1402H10.1402H10.1401H10.1401H10.14H10.14H10.1399H10.1399H10.1398H10.1398H10.1397H10.1397H10.1396H10.1396H10.1395H10.1395H10.1394H10.1394H10.1393H10.1393H10.1392H10.1392H10.1391H10.1391H10.139H10.139H10.1389H10.1389H10.1389H10.1388H10.1388H10.1387H10.1387H10.1386H10.1386H10.1385H10.1385H10.1384H10.1384H10.1383H10.1383H10.1382H10.1382H10.1381H10.1381H10.138H10.138H10.1379H10.1379H10.1378H10.1378H10.1377H10.1377H10.1376H10.1376H10.1375H10.1375H10.1374H10.1374H10.1373H10.1373H10.1372H10.1372H10.1371H10.1371H10.137H10.137H10.1369H10.1369H10.1368H10.1368H10.1368H10.1367H10.1367H10.1366H10.1366H10.1365H10.1365H10.1364H10.1364H10.1363H10.1363H10.1362H10.1362H10.1361H10.1361H10.136H10.136H10.1359H10.1359H10.1358H10.1358H10.1357H10.1357H10.1356H10.1356H10.1355H10.1355H10.1354H10.1354H10.1353H10.1353H10.1352H10.1352H10.1351H10.1351H10.135H10.135H10.1349H10.1349H10.1348H10.1348H10.1347H10.1347H10.1347H10.1346H10.1346H10.1345H10.1345H10.1344H10.1344H10.1343H10.1343H10.1342H10.1342H10.1341H10.1341H10.134H10.134H10.1339H10.1339H10.1338H10.1338H10.1337H10.1337H10.1336H10.1336H10.1335H10.1335H10.1334H10.1334H10.1333H10.1333H10.1332H10.1332H10.1331Z" fill="#21252B" stroke="#21252B"/>
<path id="Vector_2" d="M5.90331 17.1262L5.90332 17.1262L5.90064 17.1244C4.84849 16.428 4.33301 15.5201 4.33301 14.583C4.33301 13.645 4.84942 12.7286 5.90189 12.0241C7.05338 11.2606 8.58903 10.8643 10.1476 10.8643C11.7067 10.8643 13.2378 11.2608 14.3803 12.0238L14.3807 12.024C15.4274 12.7218 15.9497 13.6307 15.9497 14.5663C15.9497 15.5046 15.433 16.4212 14.3801 17.1257C13.2285 17.8932 11.6972 18.2913 10.1413 18.2913C8.58436 18.2913 7.04543 17.8927 5.90331 17.1262ZM6.03899 12.242C5.15087 12.8341 4.58301 13.6543 4.58301 14.5913C4.58301 15.5227 5.16212 16.3422 6.03895 16.924C7.17766 17.6873 8.67451 18.0518 10.1413 18.0518C11.6083 18.0518 13.1054 17.6872 14.2441 16.9237C15.132 16.3317 15.6997 15.5115 15.6997 14.5747C15.6997 13.6432 15.1203 12.8235 14.2432 12.2416C13.1046 11.4828 11.6079 11.1205 10.1413 11.1205C8.67458 11.1205 7.17768 11.4829 6.03899 12.242Z" fill="#21252B" stroke="#21252B"/>
</g>
</g>
</svg>
