<svg width="20" height="20" viewBox="0 0 20 20" fill="none" xmlns="http://www.w3.org/2000/svg">
<g id="icon/Wrench">
<path id="Vector" d="M17.7157 5.39076C17.6778 5.29706 17.6177 5.21395 17.5406 5.14856C17.4636 5.08317 17.3718 5.03745 17.2731 5.01533C17.1745 4.9932 17.072 4.99533 16.9743 5.02153C16.8767 5.04774 16.7869 5.09723 16.7126 5.16576L13.5642 8.07123L12.2181 7.78217L11.929 6.43607L14.8345 3.28764C14.903 3.21333 14.9525 3.12352 14.9787 3.02589C15.0049 2.92826 15.007 2.82573 14.9849 2.7271C14.9628 2.62846 14.9171 2.53667 14.8517 2.45958C14.7863 2.3825 14.7032 2.32242 14.6095 2.28451C13.7555 1.93907 12.8298 1.80864 11.9136 1.90468C10.9975 2.00072 10.1189 2.3203 9.35516 2.83533C8.59141 3.35036 7.96583 4.04508 7.5334 4.85846C7.10097 5.67183 6.87491 6.57896 6.87509 7.50014C6.87408 8.27801 7.03366 9.04772 7.34384 9.76107L2.63993 13.8283C2.62822 13.8376 2.61728 13.8486 2.60634 13.8587C2.13745 14.3276 1.87402 14.9636 1.87402 15.6267C1.87402 15.955 1.9387 16.2802 2.06435 16.5835C2.19 16.8869 2.37417 17.1625 2.60634 17.3947C2.83851 17.6268 3.11414 17.811 3.41749 17.9367C3.72084 18.0623 4.04597 18.127 4.37431 18.127C5.03743 18.127 5.67338 17.8636 6.14228 17.3947C6.15243 17.3845 6.16337 17.3728 6.17275 17.3619L10.2392 12.6564C11.0957 13.0324 12.0326 13.1888 12.9649 13.1115C13.8971 13.0342 14.7954 12.7257 15.5784 12.2137C16.3614 11.7018 17.0043 11.0026 17.449 10.1796C17.8936 9.35656 18.126 8.43562 18.1251 7.50014C18.1263 6.77715 17.9873 6.0608 17.7157 5.39076ZM12.5001 11.8751C11.7603 11.8741 11.0328 11.686 10.3852 11.3283C10.2598 11.259 10.1143 11.2349 9.97324 11.26C9.83214 11.2852 9.70399 11.3581 9.61025 11.4665L5.24306 16.5244C5.00673 16.7489 4.69204 16.8722 4.36609 16.868C4.04014 16.8639 3.72871 16.7325 3.49821 16.502C3.26771 16.2715 3.13637 15.9601 3.1322 15.6341C3.12802 15.3082 3.25135 14.9935 3.47587 14.7572L8.52978 10.3908C8.63838 10.297 8.7114 10.1687 8.73658 10.0274C8.76176 9.88614 8.73757 9.74051 8.66806 9.61498C8.26964 8.89439 8.08267 8.07599 8.12863 7.25387C8.17459 6.43175 8.45162 5.63929 8.92787 4.9676C9.40412 4.2959 10.0603 3.77224 10.8208 3.45681C11.5814 3.14139 12.4156 3.047 13.2274 3.18451L10.7899 5.82592C10.7221 5.89949 10.6729 5.98827 10.6466 6.08479C10.6202 6.18132 10.6174 6.28277 10.6384 6.3806L11.0806 8.43764C11.1059 8.55529 11.1646 8.66313 11.2497 8.74822C11.3348 8.83331 11.4426 8.89203 11.5602 8.91732L13.6188 9.35951C13.7167 9.3805 13.8181 9.37768 13.9146 9.35131C14.0112 9.32493 14.1 9.27577 14.1735 9.20795L16.8149 6.77045C16.9202 7.3978 16.8876 8.04056 16.7193 8.65402C16.5511 9.26749 16.2512 9.83693 15.8405 10.3228C15.4299 10.8086 14.9183 11.1991 14.3414 11.4672C13.7646 11.7353 13.1362 11.8745 12.5001 11.8751Z" fill="#21252B"/>
</g>
</svg>
