<svg width="18" height="16" viewBox="0 0 18 16" fill="none" xmlns="http://www.w3.org/2000/svg">
<path fill-rule="evenodd" clip-rule="evenodd" d="M8.99987 5.64173C7.69505 5.64173 6.64154 6.69524 6.64154 8.00007C6.64154 8.42538 6.75314 8.82215 6.95011 9.16594L10.1657 5.95031C9.82195 5.75334 9.42519 5.64173 8.99987 5.64173ZM5.39154 8.00007C5.39154 6.00489 7.00469 4.39173 8.99987 4.39173C9.99805 4.39173 10.8966 4.79626 11.5501 5.44979C11.7942 5.69387 11.7942 6.0896 11.5501 6.33367L7.33348 10.5503C7.0894 10.7944 6.69367 10.7944 6.44959 10.5503C5.79607 9.89681 5.39154 8.99824 5.39154 8.00007Z" fill="#383E47"/>
<path fill-rule="evenodd" clip-rule="evenodd" d="M0.881115 5.50587C2.87355 2.3739 5.79322 0.483398 8.99987 0.483398C10.8746 0.483398 12.6711 1.13641 14.2262 2.30943C14.5018 2.51729 14.5567 2.90919 14.3488 3.18477C14.141 3.46034 13.7491 3.51523 13.4735 3.30737C12.112 2.28039 10.5752 1.7334 8.99987 1.7334C6.32333 1.7334 3.75978 3.3094 1.93555 6.17718L1.93503 6.178C1.63954 6.64093 1.4707 7.3036 1.4707 8.00423C1.4707 8.70486 1.63954 9.36753 1.93503 9.83046C2.56317 10.8164 3.29079 11.6609 4.07406 12.3345C4.33577 12.5596 4.36547 12.9542 4.1404 13.2159C3.91533 13.4776 3.52072 13.5073 3.25901 13.2823C2.37561 12.5225 1.56961 11.5833 0.88109 10.5026C0.426778 9.79055 0.220703 8.87842 0.220703 8.00423C0.220703 7.13003 0.426785 6.21788 0.881115 5.50587Z" fill="#383E47"/>
<path fill-rule="evenodd" clip-rule="evenodd" d="M15.3165 4.12139C15.5854 3.90505 15.9789 3.94771 16.1952 4.21667C16.5151 4.6144 16.8294 5.04178 17.1192 5.49851C17.5731 6.21038 17.779 7.12209 17.779 7.9959C17.779 8.8701 17.573 9.78225 17.1186 10.4943C15.1262 13.6262 12.2065 15.5167 8.99987 15.5167C7.88609 15.5167 6.79556 15.2812 5.774 14.8511C5.45587 14.7171 5.30657 14.3507 5.44051 14.0325C5.57446 13.7144 5.94094 13.5651 6.25907 13.699C7.13752 14.0689 8.06365 14.2667 8.99987 14.2667C11.6764 14.2667 14.24 12.6907 16.0642 9.82295L16.0647 9.82213C16.3602 9.3592 16.529 8.69653 16.529 7.9959C16.529 7.29527 16.3602 6.6326 16.0647 6.16967L16.0638 6.16829C15.8037 5.75836 15.518 5.36907 15.2212 5.00012C15.0049 4.73116 15.0475 4.33773 15.3165 4.12139Z" fill="#383E47"/>
<path fill-rule="evenodd" clip-rule="evenodd" d="M12.0382 7.96876C12.3777 8.03136 12.6021 8.35728 12.5395 8.69674C12.2758 10.1266 11.1181 11.2844 9.68821 11.548C9.34875 11.6106 9.02283 11.3862 8.96023 11.0467C8.89764 10.7073 9.12208 10.3814 9.46153 10.3188C10.3817 10.1491 11.1406 9.39019 11.3102 8.47006C11.3728 8.13061 11.6988 7.90617 12.0382 7.96876Z" fill="#383E47"/>
<path fill-rule="evenodd" clip-rule="evenodd" d="M6.94181 10.0581C7.18589 10.3022 7.18589 10.6979 6.94181 10.942L2.77515 15.1087C2.53107 15.3528 2.13534 15.3528 1.89126 15.1087C1.64718 14.8646 1.64718 14.4689 1.89126 14.2248L6.05793 10.0581C6.30201 9.81405 6.69773 9.81405 6.94181 10.0581Z" fill="#383E47"/>
<path fill-rule="evenodd" clip-rule="evenodd" d="M16.1085 0.891457C16.3526 1.13553 16.3526 1.53126 16.1085 1.77534L11.9418 5.94201C11.6977 6.18608 11.302 6.18608 11.0579 5.94201C10.8139 5.69793 10.8139 5.3022 11.0579 5.05812L15.2246 0.891457C15.4687 0.647379 15.8644 0.647379 16.1085 0.891457Z" fill="#383E47"/>
</svg>
